FFmpeg version SVN-r25716, Copyright (c) 2000-2010 the FFmpeg developers  built on Nov 10 2010 12:23:18 with gcc 4.1.2 20080704 (Red Hat 4.1.2-48)  configuration: --enable-libmp3lame --enable-shared --disable-mmx --arch=x86_64  libavutil     50.33. 0 / 50.33. 0  libavcore      0.12. 1 /  0.12. 1  libavcodec    52.94. 4 / 52.94. 4  libavformat   52.84. 0 / 52.84. 0  libavdevice   52. 2. 2 / 52. 2. 2  libavfilter    1.59. 0 /  1.59. 0  libswscale     0.12. 0 /  0.12. 0Input #0, avi, from '/RAID10/data/converted_video_files/30571.avi':  Duration: 00:00:37.85, start: 0.000000, bitrate: 17831 kb/s    Stream #0.0: Video: rawvideo, bgr24, 396x268, 7 tbr, 7 tbn, 7 tbc    Metadata:      title           : FileAVI write  [buffer @ 0x139e7fc0] w:396 h:268 pixfmt:bgr24[ffsink @ 0x139e8230] auto-inserting filter 'auto-inserted scaler 0' between the filter 'src' and the filter 'out'[scale @ 0x139e8550] w:396 h:268 fmt:bgr24 -> w:396 h:268 fmt:yuv420p flags:0x4Output #0, flv, to '/RAID10/data/converted_video_files/30571.flv':  Metadata:    encoder         : Lavf52.84.0    Stream #0.0: Video: flv, yuv420p, 396x268, q=2-31, 600 kb/s, 1k tbn, 24 tbc    Metadata:      title           : FileAVI write  Stream mapping:  Stream #0.0 -> #0.0Press [q] to stop encodingframe=   69 fps=  0 q=4.4 size=     455kB time=9.75 bitrate= 382.3kbits/s    frame=  146 fps=139 q=4.2 size=    1047kB time=20.75 bitrate= 413.4kbits/s    frame=  225 fps=145 q=3.6 size=    1691kB time=32.04 bitrate= 432.2kbits/s    frame=  265 fps=147 q=2.8 Lsize=    2072kB time=37.75 bitrate= 449.7kbits/s    video:2068kB audio:0kB global headers:0kB muxing overhead 0.210170%